<?xml version="1.0" standalone="no"?>
<!DOCTYPE svg PUBLIC "-//W3C//DTD SVG 20010904//EN"
 "http://www.w3.org/TR/2001/REC-SVG-20010904/DTD/svg10.dtd">
<svg version="1.0" xmlns="http://www.w3.org/2000/svg"
 width="30.000000pt" height="30.000000pt" viewBox="0 0 30.000000 30.000000"
 preserveAspectRatio="xMidYMid meet">

<g transform="translate(0.000000,30.000000) scale(0.100000,-0.100000)"
fill="#000000" stroke="none">
<path d="M117 264 c-4 -4 -7 -34 -7 -66 0 -58 0 -58 -30 -58 -16 0 -30 -4 -30
-8 0 -4 22 -30 50 -57 l50 -49 50 49 c28 27 50 53 50 57 0 4 -13 8 -30 8 -29
0 -29 1 -32 63 -3 61 -3 62 -33 65 -17 2 -34 0 -38 -4z"/>
</g>
</svg>
