<?xml version="1.0" standalone="no"?>
<!DOCTYPE svg PUBLIC "-//W3C//DTD SVG 20010904//EN"
 "http://www.w3.org/TR/2001/REC-SVG-20010904/DTD/svg10.dtd">
<svg version="1.0" xmlns="http://www.w3.org/2000/svg"
 width="32.000000pt" height="32.000000pt" viewBox="0 0 32.000000 32.000000"
 preserveAspectRatio="xMidYMid meet">

<g transform="translate(0.000000,32.000000) scale(0.100000,-0.100000)"
fill="#000000" stroke="none">
<path d="M85 292 c-54 -34 -69 -59 -72 -120 -5 -66 16 -109 69 -143 47 -29
137 -23 174 12 73 68 73 170 0 238 -36 34 -128 41 -171 13z m160 -81 c3 -6 -3
-15 -14 -20 -23 -13 -41 -30 -71 -68 l-21 -26 -34 33 c-24 23 -32 37 -25 44 7
7 17 3 32 -11 l22 -22 43 39 c44 41 57 47 68 31z"/>
</g>
</svg>
